<svg width="35" height="35" viewBox="0 0 35 35" fill="none" xmlns="http://www.w3.org/2000/svg">
<path d="M17.5 35C27.165 35 35 27.165 35 17.5C35 7.83502 27.165 0 17.5 0C7.83502 0 0 7.83502 0 17.5C0 27.165 7.83502 35 17.5 35Z" fill="#3C5A9A"/>
<path d="M22.9836 5H19.2477C17.0307 5 14.5648 5.95734 14.5648 9.25678C14.5756 10.4064 14.5648 11.5075 14.5648 12.7466H12V16.9369H14.6441V29H19.5029V16.8573H22.7098L23 12.7348H19.4192C19.4192 12.7348 19.4272 10.901 19.4192 10.3685C19.4192 9.06458 20.7406 9.13925 20.8201 9.13925C21.4489 9.13925 22.6716 9.14113 22.9855 9.13925V5H22.9836Z" fill="white"/>
</svg>
