<svg aria-hidden="true" style="position: absolute; width: 0; height: 0; overflow: hidden;" version="1.1" xmlns="http://www.w3.org/2000/svg" xmlns:xlink="http://www.w3.org/1999/xlink">
<defs>
<symbol id="icon-youtube" viewBox="0 0 40 32">
<path fill="#cd201f" style="fill: var(--color1, #cd201f)" d="M16.673 31.961c-7.667-0.16-10.285-0.303-11.895-0.679-1.089-0.25-2.036-0.803-2.729-1.606-0.537-0.608-0.963-1.535-1.294-2.821-0.284-1.073-0.394-1.964-0.551-4.142-0.242-4.917-0.299-8.936 0-13.428 0.247-2.481 0.365-5.425 2.003-7.142 0.774-0.804 1.672-1.321 2.683-1.535 1.577-0.339 8.297-0.607 15.255-0.607 6.942 0 13.677 0.268 15.257 0.607 1.261 0.268 2.444 1.071 3.139 2.106 1.494 2.66 1.519 5.966 1.672 8.554 0.062 1.233 0.062 8.23 0 9.463-0.237 4.088-0.426 5.535-0.962 7.034-0.332 0.948-0.615 1.447-1.105 2.001-0.769 0.853-1.749 1.419-2.809 1.625-6.635 0.565-12.269 0.687-18.663 0.572zM26.834 15.533c-3.691-2.232-7.226-4.302-10.839-6.445v12.821c3.802-2.339 7.81-4.482 10.854-6.393l-0.015 0.018z"></path>
</symbol>
<symbol id="icon-fasebook" viewBox="0 0 32 32">
<path fill="#3c5a9a" style="fill: var(--color2, #3c5a9a)" d="M16 32c8.837 0 16-7.163 16-16s-7.163-16-16-16-16 7.163-16 16 7.163 16 16 16z"></path>
<path fill="#fff" style="fill: var(--color3, #fff)" d="M21.014 4.571h-3.416c-2.027 0-4.282 0.875-4.282 3.892 0.009 1.051 0 2.057 0 3.191h-2.345v3.831h2.417v11.029h4.443v-11.102h2.932l0.265-3.769h-3.273s0.006-1.677 0-2.164c0-1.191 1.207-1.124 1.28-1.124 0.575 0 1.693 0.002 1.979 0v-3.784h-0.001z"></path>
</symbol>
<symbol id="icon-instagram" viewBox="0 0 32 32">
<path d="M10.668 16c0.001-2.945 2.388-5.332 5.333-5.332s5.333 2.388 5.333 5.333-2.388 5.333-5.333 5.333v0c-2.945 0-5.333-2.388-5.333-5.333 0-0 0-0.001 0-0.001v0zM7.784 16c0 4.537 3.678 8.216 8.216 8.216 0 0 0.001 0 0.001 0h-0c4.537 0 8.216-3.678 8.216-8.216s-3.678-8.216-8.216-8.216v0c-0 0-0.001 0-0.001 0-4.537 0-8.216 3.678-8.216 8.216v0zM22.622 7.459c0 0 0 0.001 0 0.001 0 1.060 0.86 1.92 1.92 1.92s1.919-0.859 1.92-1.919v-0c0-0 0-0.001 0-0.001 0-1.060-0.86-1.92-1.92-1.92s-1.919 0.859-1.92 1.919v0zM9.536 29.024c-1.56-0.071-2.407-0.331-2.971-0.55-0.722-0.271-1.336-0.679-1.839-1.197l-0.001-0.001c-0.519-0.503-0.926-1.117-1.186-1.804l-0.011-0.034c-0.219-0.564-0.479-1.413-0.55-2.971-0.077-1.687-0.092-2.194-0.092-6.467s0.016-4.778 0.092-6.466c0.071-1.56 0.333-2.406 0.55-2.971 0.292-0.747 0.637-1.28 1.198-1.84 0.503-0.519 1.118-0.927 1.806-1.186l0.034-0.011c0.563-0.219 1.412-0.479 2.971-0.55 1.687-0.078 2.194-0.092 6.464-0.092 4.272 0 4.779 0.016 6.467 0.092 1.56 0.071 2.406 0.333 2.971 0.55 0.747 0.29 1.28 0.637 1.84 1.198 0.519 0.504 0.927 1.118 1.186 1.805l0.011 0.034c0.219 0.563 0.478 1.412 0.549 2.971 0.078 1.688 0.093 2.193 0.093 6.466s-0.016 4.778-0.093 6.466c-0.071 1.56-0.332 2.408-0.55 2.971-0.271 0.721-0.679 1.336-1.196 1.838l-0.001 0.001c-0.504 0.518-1.119 0.926-1.806 1.185l-0.034 0.011c-0.563 0.219-1.412 0.479-2.971 0.55-1.687 0.077-2.193 0.092-6.466 0.092s-4.778-0.016-6.464-0.092zM9.404 0.097c-1.704 0.078-2.868 0.347-3.884 0.743-1.109 0.424-2.055 1.052-2.833 1.844l-0.001 0.001c-0.795 0.779-1.423 1.725-1.829 2.781l-0.018 0.053c-0.394 1.018-0.664 2.181-0.742 3.884-0.080 1.706-0.098 2.252-0.098 6.597s0.018 4.89 0.097 6.597c0.078 1.703 0.347 2.866 0.743 3.884 0.423 1.109 1.051 2.055 1.844 2.833l0.001 0.001c0.78 0.793 1.725 1.42 2.78 1.827l0.054 0.018c1.018 0.396 2.181 0.666 3.885 0.743 1.707 0.078 2.251 0.097 6.597 0.097s4.89-0.018 6.597-0.097c1.703-0.078 2.866-0.347 3.884-0.743 1.109-0.425 2.054-1.052 2.833-1.844l0.001-0.001c0.794-0.779 1.422-1.725 1.828-2.781l0.018-0.054c0.395-1.018 0.666-2.181 0.742-3.884 0.078-1.707 0.096-2.252 0.096-6.597s-0.018-4.89-0.096-6.597c-0.077-1.703-0.347-2.867-0.743-3.884-0.425-1.109-1.052-2.054-1.844-2.833l-0.001-0.001c-0.779-0.793-1.724-1.421-2.78-1.826l-0.054-0.018c-1.018-0.397-2.181-0.668-3.884-0.744-1.706-0.078-2.251-0.097-6.597-0.097s-4.891 0.018-6.598 0.097z"></path>
<path d="M10.668 16c0.001-2.945 2.388-5.332 5.333-5.332s5.333 2.388 5.333 5.333-2.388 5.333-5.333 5.333v0c-2.945 0-5.333-2.388-5.333-5.333 0-0 0-0.001 0-0.001v0zM7.784 16c0 4.537 3.678 8.216 8.216 8.216 0 0 0.001 0 0.001 0h-0c4.537 0 8.216-3.678 8.216-8.216s-3.678-8.216-8.216-8.216v0c-0 0-0.001 0-0.001 0-4.537 0-8.216 3.678-8.216 8.216v0zM22.622 7.459c0 0 0 0.001 0 0.001 0 1.060 0.86 1.92 1.92 1.92s1.919-0.859 1.92-1.919v-0c0-0 0-0.001 0-0.001 0-1.060-0.86-1.92-1.92-1.92s-1.919 0.859-1.92 1.919v0zM9.536 29.024c-1.56-0.071-2.407-0.331-2.971-0.55-0.722-0.271-1.336-0.679-1.839-1.197l-0.001-0.001c-0.519-0.503-0.926-1.117-1.186-1.804l-0.011-0.034c-0.219-0.564-0.479-1.413-0.55-2.971-0.077-1.687-0.092-2.194-0.092-6.467s0.016-4.778 0.092-6.466c0.071-1.56 0.333-2.406 0.55-2.971 0.292-0.747 0.637-1.28 1.198-1.84 0.503-0.519 1.118-0.927 1.806-1.186l0.034-0.011c0.563-0.219 1.412-0.479 2.971-0.55 1.687-0.078 2.194-0.092 6.464-0.092 4.272 0 4.779 0.016 6.467 0.092 1.56 0.071 2.406 0.333 2.971 0.55 0.747 0.29 1.28 0.637 1.84 1.198 0.519 0.504 0.927 1.118 1.186 1.805l0.011 0.034c0.219 0.563 0.478 1.412 0.549 2.971 0.078 1.688 0.093 2.193 0.093 6.466s-0.016 4.778-0.093 6.466c-0.071 1.56-0.332 2.408-0.55 2.971-0.271 0.721-0.679 1.336-1.196 1.838l-0.001 0.001c-0.504 0.518-1.119 0.926-1.806 1.185l-0.034 0.011c-0.563 0.219-1.412 0.479-2.971 0.55-1.687 0.077-2.193 0.092-6.466 0.092s-4.778-0.016-6.464-0.092zM9.404 0.097c-1.704 0.078-2.868 0.347-3.884 0.743-1.109 0.424-2.055 1.052-2.833 1.844l-0.001 0.001c-0.795 0.779-1.423 1.725-1.829 2.781l-0.018 0.053c-0.394 1.018-0.664 2.181-0.742 3.884-0.080 1.706-0.098 2.252-0.098 6.597s0.018 4.89 0.097 6.597c0.078 1.703 0.347 2.866 0.743 3.884 0.423 1.109 1.051 2.055 1.844 2.833l0.001 0.001c0.78 0.793 1.725 1.42 2.78 1.827l0.054 0.018c1.018 0.396 2.181 0.666 3.885 0.743 1.707 0.078 2.251 0.097 6.597 0.097s4.89-0.018 6.597-0.097c1.703-0.078 2.866-0.347 3.884-0.743 1.109-0.425 2.054-1.052 2.833-1.844l0.001-0.001c0.794-0.779 1.422-1.725 1.828-2.781l0.018-0.054c0.395-1.018 0.666-2.181 0.742-3.884 0.078-1.707 0.096-2.252 0.096-6.597s-0.018-4.89-0.096-6.597c-0.077-1.703-0.347-2.867-0.743-3.884-0.425-1.109-1.052-2.054-1.844-2.833l-0.001-0.001c-0.779-0.793-1.724-1.421-2.78-1.826l-0.054-0.018c-1.018-0.397-2.181-0.668-3.884-0.744-1.706-0.078-2.251-0.097-6.597-0.097s-4.891 0.018-6.598 0.097z"></path>
</symbol>
<symbol id="icon-menu" viewBox="0 0 32 32">
<path d="M2 6h28v6h-28zM2 14h28v6h-28zM2 22h28v6h-28z"></path>
</symbol>
</defs>
</svg>
