<svg aria-hidden="true" style="position: absolute; width: 0; height: 0; overflow: hidden;" version="1.1" xmlns="http://www.w3.org/2000/svg" xmlns:xlink="http://www.w3.org/1999/xlink">
<defs>
<symbol id="icon-Group-insta" viewBox="0 0 32 32">
<path d="M10.668 16c0-2.945 2.387-5.334 5.333-5.334s5.334 2.388 5.334 5.334c0 2.945-2.388 5.334-5.334 5.334s-5.333-2.388-5.333-5.334zM7.785 16c0 4.538 3.678 8.216 8.216 8.216s8.216-3.678 8.216-8.216c0-4.538-3.678-8.216-8.216-8.216s-8.216 3.678-8.216 8.216zM22.622 7.458c-0 0.38 0.112 0.751 0.323 1.067s0.511 0.562 0.861 0.707 0.737 0.184 1.109 0.11c0.372-0.074 0.715-0.257 0.983-0.525s0.452-0.61 0.526-0.983 0.036-0.758-0.109-1.109c-0.145-0.351-0.391-0.651-0.707-0.862s-0.687-0.324-1.067-0.324c-0.509 0-0.998 0.202-1.358 0.562s-0.562 0.848-0.563 1.357zM9.536 29.024c-1.56-0.071-2.408-0.331-2.971-0.55-0.747-0.291-1.28-0.637-1.84-1.197s-0.907-1.092-1.197-1.839c-0.22-0.563-0.479-1.411-0.55-2.971-0.078-1.686-0.093-2.193-0.093-6.466s0.017-4.778 0.093-6.466c0.071-1.56 0.333-2.406 0.55-2.971 0.291-0.747 0.637-1.28 1.197-1.84s1.092-0.907 1.84-1.197c0.563-0.22 1.411-0.479 2.971-0.55 1.687-0.078 2.193-0.093 6.464-0.093s4.778 0.017 6.466 0.093c1.56 0.071 2.407 0.333 2.971 0.55 0.747 0.29 1.28 0.637 1.84 1.197s0.906 1.093 1.197 1.84c0.22 0.563 0.479 1.411 0.55 2.971 0.078 1.688 0.093 2.193 0.093 6.466s-0.015 4.778-0.093 6.466c-0.071 1.56-0.332 2.408-0.55 2.971-0.291 0.747-0.637 1.28-1.197 1.839s-1.093 0.906-1.84 1.197c-0.563 0.22-1.411 0.479-2.971 0.55-1.687 0.078-2.193 0.093-6.466 0.093s-4.778-0.016-6.464-0.093zM9.404 0.097c-1.703 0.078-2.867 0.348-3.884 0.743-1.053 0.408-1.944 0.956-2.834 1.845s-1.437 1.782-1.846 2.834c-0.396 1.017-0.666 2.18-0.743 3.884-0.079 1.706-0.097 2.251-0.097 6.596s0.018 4.891 0.097 6.596c0.078 1.703 0.348 2.867 0.743 3.884 0.408 1.052 0.955 1.946 1.846 2.834s1.782 1.436 2.834 1.846c1.018 0.396 2.18 0.666 3.884 0.743 1.707 0.078 2.252 0.097 6.597 0.097s4.891-0.018 6.597-0.097c1.703-0.078 2.867-0.348 3.884-0.743 1.052-0.41 1.944-0.956 2.834-1.846s1.436-1.782 1.846-2.834c0.396-1.017 0.667-2.18 0.743-3.884 0.078-1.707 0.096-2.251 0.096-6.596s-0.018-4.89-0.096-6.596c-0.078-1.703-0.348-2.867-0.743-3.884-0.41-1.052-0.956-1.944-1.846-2.834s-1.782-1.437-2.833-1.845c-1.018-0.396-2.182-0.667-3.884-0.743-1.706-0.078-2.252-0.097-6.597-0.097s-4.891 0.018-6.598 0.097z"></path>
<path d="M10.668 16c0-2.945 2.387-5.334 5.333-5.334s5.334 2.388 5.334 5.334c0 2.945-2.388 5.334-5.334 5.334s-5.333-2.388-5.333-5.334zM7.785 16c0 4.538 3.678 8.216 8.216 8.216s8.216-3.678 8.216-8.216c0-4.538-3.678-8.216-8.216-8.216s-8.216 3.678-8.216 8.216zM22.622 7.458c-0 0.38 0.112 0.751 0.323 1.067s0.511 0.562 0.861 0.707 0.737 0.184 1.109 0.11c0.372-0.074 0.715-0.257 0.983-0.525s0.452-0.61 0.526-0.983 0.036-0.758-0.109-1.109c-0.145-0.351-0.391-0.651-0.707-0.862s-0.687-0.324-1.067-0.324c-0.509 0-0.998 0.202-1.358 0.562s-0.562 0.848-0.563 1.357zM9.536 29.024c-1.56-0.071-2.408-0.331-2.971-0.55-0.747-0.291-1.28-0.637-1.84-1.197s-0.907-1.092-1.197-1.839c-0.22-0.563-0.479-1.411-0.55-2.971-0.078-1.686-0.093-2.193-0.093-6.466s0.017-4.778 0.093-6.466c0.071-1.56 0.333-2.406 0.55-2.971 0.291-0.747 0.637-1.28 1.197-1.84s1.092-0.907 1.84-1.197c0.563-0.22 1.411-0.479 2.971-0.55 1.687-0.078 2.193-0.093 6.464-0.093s4.778 0.017 6.466 0.093c1.56 0.071 2.407 0.333 2.971 0.55 0.747 0.29 1.28 0.637 1.84 1.197s0.906 1.093 1.197 1.84c0.22 0.563 0.479 1.411 0.55 2.971 0.078 1.688 0.093 2.193 0.093 6.466s-0.015 4.778-0.093 6.466c-0.071 1.56-0.332 2.408-0.55 2.971-0.291 0.747-0.637 1.28-1.197 1.839s-1.093 0.906-1.84 1.197c-0.563 0.22-1.411 0.479-2.971 0.55-1.687 0.078-2.193 0.093-6.466 0.093s-4.778-0.016-6.464-0.093zM9.404 0.097c-1.703 0.078-2.867 0.348-3.884 0.743-1.053 0.408-1.944 0.956-2.834 1.845s-1.437 1.782-1.846 2.834c-0.396 1.017-0.666 2.18-0.743 3.884-0.079 1.706-0.097 2.251-0.097 6.596s0.018 4.891 0.097 6.596c0.078 1.703 0.348 2.867 0.743 3.884 0.408 1.052 0.955 1.946 1.846 2.834s1.782 1.436 2.834 1.846c1.018 0.396 2.18 0.666 3.884 0.743 1.707 0.078 2.252 0.097 6.597 0.097s4.891-0.018 6.597-0.097c1.703-0.078 2.867-0.348 3.884-0.743 1.052-0.41 1.944-0.956 2.834-1.846s1.436-1.782 1.846-2.834c0.396-1.017 0.667-2.18 0.743-3.884 0.078-1.707 0.096-2.251 0.096-6.596s-0.018-4.89-0.096-6.596c-0.078-1.703-0.348-2.867-0.743-3.884-0.41-1.052-0.956-1.944-1.846-2.834s-1.782-1.437-2.833-1.845c-1.018-0.396-2.182-0.667-3.884-0.743-1.706-0.078-2.252-0.097-6.597-0.097s-4.891 0.018-6.598 0.097z"></path>
</symbol>
<symbol id="icon-logo" viewBox="0 0 83 32">
<path d="M0 0h82.743v32h-82.743v-32z"></path>
</symbol>
<symbol id="icon-youtube" viewBox="0 0 40 32">
<path fill="#cd201f" style="fill: var(--color1, #cd201f)" d="M16.673 31.961c-7.667-0.16-10.285-0.303-11.895-0.679-1.089-0.25-2.036-0.803-2.729-1.606-0.537-0.608-0.963-1.535-1.294-2.821-0.284-1.073-0.394-1.964-0.551-4.142-0.242-4.917-0.299-8.936 0-13.428 0.247-2.481 0.365-5.425 2.003-7.142 0.774-0.804 1.672-1.321 2.683-1.535 1.577-0.339 8.297-0.607 15.255-0.607 6.942 0 13.677 0.268 15.257 0.607 1.261 0.268 2.444 1.071 3.139 2.106 1.494 2.66 1.519 5.966 1.672 8.554 0.062 1.233 0.062 8.23 0 9.463-0.237 4.088-0.426 5.535-0.962 7.034-0.332 0.948-0.615 1.447-1.105 2.001-0.769 0.853-1.749 1.419-2.809 1.625-6.635 0.565-12.269 0.687-18.663 0.572zM26.834 15.533c-3.691-2.232-7.226-4.302-10.839-6.445v12.821c3.802-2.339 7.81-4.482 10.854-6.393l-0.015 0.018z"></path>
</symbol>
<symbol id="icon-fasebook" viewBox="0 0 32 32">
<path fill="#3c5a9a" style="fill: var(--color2, #3c5a9a)" d="M16 32c8.837 0 16-7.163 16-16s-7.163-16-16-16-16 7.163-16 16 7.163 16 16 16z"></path>
<path fill="#fff" style="fill: var(--color3, #fff)" d="M21.014 4.571h-3.416c-2.027 0-4.282 0.875-4.282 3.892 0.009 1.051 0 2.057 0 3.191h-2.345v3.831h2.417v11.029h4.443v-11.102h2.932l0.265-3.769h-3.273s0.006-1.677 0-2.164c0-1.191 1.207-1.124 1.28-1.124 0.575 0 1.693 0.002 1.979 0v-3.784h-0.001z"></path>
</symbol>
<symbol id="icon-menu" viewBox="0 0 32 32">
<path d="M2 6h28v5h-28zM2 14h28v5h-28zM2 22h28v5h-28z"></path>
</symbol>
<symbol id="icon-close_40px" viewBox="0 0 32 32">
<path d="M23.733 10.304l-1.504-1.504-5.963 5.963-5.963-5.963-1.504 1.504 5.963 5.963-5.963 5.963 1.504 1.504 5.963-5.963 5.963 5.963 1.504-1.504-5.963-5.963 5.963-5.963z"></path>
</symbol>
</defs>
</svg>
