<svg width="39" height="31" viewBox="0 0 39 31" fill="none" xmlns="http://www.w3.org/2000/svg">
<path d="M16.152 30.9616C8.72465 30.8068 6.18784 30.6676 4.62856 30.304C3.5736 30.0624 2.65685 29.526 1.98466 28.7481C1.46514 28.1593 1.05198 27.2609 0.731443 26.0145C0.456489 24.9761 0.349401 24.1122 0.196729 22.0018C-0.0369816 17.239 -0.092696 13.3451 0.196729 8.99416C0.435505 6.59146 0.551275 3.73917 2.13733 2.07513C2.88621 1.29634 3.75739 0.795168 4.73564 0.587982C6.26381 0.259597 12.7744 0 19.5144 0C26.2392 0 32.7643 0.259597 34.2939 0.587982C35.516 0.847579 36.6622 1.62555 37.3351 2.62872C38.7822 5.20503 38.8075 8.40863 38.9544 10.9145C39.0152 12.1085 39.0152 18.8883 38.9544 20.0823C38.7258 24.0426 38.542 25.4437 38.0225 26.8965C37.7012 27.8137 37.427 28.2976 36.9523 28.834C36.2079 29.6595 35.2589 30.2085 34.2317 30.408C27.8043 30.955 22.3465 31.0738 16.152 30.9616ZM25.9947 15.0484C22.4188 12.8856 18.9949 10.8801 15.495 8.80417V21.2239C19.178 18.9579 23.0606 16.882 26.0099 15.0312L25.9947 15.0484Z" fill="#CD201F"/>
</svg>
